<?xml version="1.0" encoding="utf-8"?>
<!-- Generator: Adobe Illustrator 24.0.1, SVG Export Plug-In . SVG Version: 6.00 Build 0)  -->
<svg version="1.1" id="Camada_1" xmlns="http://www.w3.org/2000/svg" xmlns:xlink="http://www.w3.org/1999/xlink" x="0px" y="0px"
	 viewBox="0 0 411.9 190.9" style="enable-background:new 0 0 411.9 190.9;" xml:space="preserve">
<style type="text/css">
	.st0{fill:none;}
	.st1{fill:none;stroke:#1553A1;stroke-width:8.6893;stroke-miterlimit:10;}
	.st2{fill:none;stroke:#00B0CD;stroke-width:8.6898;stroke-miterlimit:10.0005;}
	.st3{fill:none;stroke:#40B288;stroke-width:8.6893;stroke-miterlimit:10.0001;}
	.st4{fill:#11AFCC;}
	.st5{fill:#1554A1;}
</style>
<g id="Camada_2_1_">
</g>
<g id="Camada_1_1_">
	<g>
		<path d="M356.5,68c-4.8,0-8.5-1.2-11.1-3.5c-2.6-2.4-3.9-5.6-3.9-9.8s1.3-7.5,3.9-9.8s6.3-3.5,11.1-3.5c4.7,0,8.4,1.2,11,3.5
			c2.6,2.4,3.9,5.6,3.9,9.8s-1.3,7.5-3.9,9.8C364.9,66.8,361.2,68,356.5,68z M370,75.5h-27.1v72.2H370L370,75.5L370,75.5z"/>
		<path d="M2.2,113.1v-3c0-11,3.9-19.8,11.8-26.6s19-10.1,33.4-10.1c13.1,0,23.3,2.8,30.6,8.5c7.4,5.6,11.7,13.4,12.9,23.2H62.5
			c-2-6.2-7.3-9.3-15.8-9.3c-5.6,0-9.9,1.4-12.7,4.1c-2.9,2.7-4.3,6.6-4.3,11.7s1.4,9,4.3,11.7c2.9,2.7,7.1,4.1,12.7,4.1
			c8.6,0,13.9-3.1,15.9-9.3h28.6c-1.3,9.8-5.6,17.5-12.9,23.2c-7.4,5.6-17.6,8.5-30.8,8.5c-14.4,0-25.6-3.4-33.4-10.1
			C6.2,132.9,2.2,124.1,2.2,113.1z"/>
		<path d="M187.7,109.3c0,2.5-0.2,5.1-0.7,7.6h-61.9c1.3,8.4,7.1,12.5,17.4,12.5c4.3,0,7.4-0.5,9.4-1.6c2-1,3.7-2.6,5.2-4.6h29
			c-1.4,7.5-5.6,13.7-12.7,18.8s-17.1,7.6-29.9,7.6c-14.3,0-25.3-3.4-33.1-10.1s-11.7-15.6-11.7-26.6v-3c0-11,3.9-19.8,11.8-26.6
			s19-10.1,33.4-10.1c13.8,0,24.5,3.3,32.2,9.9C183.9,90,187.7,98.6,187.7,109.3z M144,91.4c-10.9,0-17.1,4.1-18.5,12.4h35
			C159.6,95.5,154.1,91.4,144,91.4z"/>
	</g>
	<rect x="-465.3" y="-256" class="st0" width="0" height="4"/>
	<polygon class="st0" points="633.7,205 636.7,205 636.7,205 	"/>
	<g>
		<path d="M246.2,174.1l-11.8,0v-3.9H251v19.1h-3.5l0.1-8.5c-1.1,3.2-3.1,4.8-5.6,6.5s-5.3,2.6-8.6,2.6c-4.9,0-8.9-1.6-11.8-4.8
			s-4.5-7.6-4.5-13.1v-1.5c0-5.6,1.5-10,4.6-13.2c3.1-3.2,7.3-4.8,12.6-4.8c4.8,0,8.6,1.2,11.4,3.6s4.5,5.4,5.1,9.2h-4.5
			c-0.5-2.7-1.8-4.9-3.8-6.5s-4.7-2.4-8.2-2.4c-4,0-7.1,1.2-9.4,3.6c-2.2,2.4-3.3,5.9-3.3,10.5v1.5c0,4.5,1.1,8,3.3,10.4
			s5.3,3.6,9.2,3.6c3.5,0,6.4-1.1,8.6-3.2C245,180.7,245.9,177.8,246.2,174.1z"/>
		<path d="M273.5,153l14.6,36.3h-4.7l-4-10h-15.9l-4,10h-4.7l14.5-36.3L273.5,153L273.5,153z M277.8,175.4l-6.5-16.4l-6.4,16.4
			H277.8z"/>
		<path d="M312.2,182.4l13.3-29.3h6.1v36.3h-4.4v-30.1l-13.8,30.1H311l-13.7-30.5v30.5h-4.4V153h6.3L312.2,182.4z"/>
		<path d="M355.1,153l14.6,36.3H365l-4-10h-15.9l-4,10h-4.7l14.5-36.3L355.1,153L355.1,153z M359.5,175.4L353,159l-6.4,16.4H359.5z"
			/>
	</g>
	<g id="Camada_3">
		<ellipse class="st1" cx="356.3" cy="55.8" rx="29" ry="49.8"/>
		
			<ellipse transform="matrix(0.5677 -0.8233 0.8233 0.5677 108.8327 317.4119)" class="st2" cx="356.6" cy="55.1" rx="29.5" ry="55.4"/>
		
			<ellipse transform="matrix(0.8374 -0.5466 0.5466 0.8374 28.1461 203.7796)" class="st3" cx="356.6" cy="54.6" rx="55.3" ry="29.6"/>
		<path class="st4" d="M397.5,47.4l-4.9,7.9c0.6,0.3,6.1,10.8,6.1,10.8l5.5-8.6l-1.2-2.2C401.4,52.5,399.6,49.9,397.5,47.4
			L397.5,47.4z"/>
		<path class="st4" d="M343,87.9c0,0,12.2,5.9,12.4,5.9s11.4-5.1,11.4-5.1l-12.7-4.9L343,87.9z"/>
		<path class="st5" d="M329.9,89.1c0,0,4.7,8.6,6.9,10.8s7.7-2.9,7.9-2.9s1-0.4,1-0.4s-3.7-3.4-6.9-9.1
			C335.6,81.7,329.9,89.1,329.9,89.1"/>
	</g>
	<path d="M303.2,73.7c9,0,16,2.9,21.2,8.6s7.7,14.1,7.7,25.2v40.2h-27.4v-36.1c0-5.2-1-8.9-3-11.1s-5.1-3.3-9.4-3.3
		c-4.6,0-8.2,1.3-10.8,4c-2.5,2.6-3.8,6.4-3.8,11.3v35.3h-27.4V112c0-5.4-1-9.2-3-11.4s-5.1-3.4-9.4-3.4c-4.6,0-8.2,1.3-10.8,4
		c-2.5,2.6-3.8,6.4-3.8,11.3v35.3H196V75.5h22l-0.2,15.5c3.8-15.8,13.8-17.5,29.8-17.5c14.4,0,23.8,4.8,28.1,17.7
		C280.2,78.4,289.4,73.7,303.2,73.7z"/>
</g>
</svg>
